<svg width="40" height="39" viewBox="0 0 40 39" fill="none" xmlns="http://www.w3.org/2000/svg">
<path d="M20 0C8.95599 0 0 8.65224 0 19.3217C0 29.9911 8.95599 38.6434 20 38.6434C31.044 38.6434 40 29.9911 40 19.3217C40 8.65224 31.044 0 20 0ZM29.1318 15.065C29.1406 15.2552 29.1449 15.4462 29.1449 15.6381C29.1449 21.4984 24.5276 28.2561 16.0837 28.2564H16.084H16.0837C13.4912 28.2564 11.0788 27.5222 9.04724 26.2642C9.40643 26.3052 9.77203 26.3256 10.1422 26.3256C12.2931 26.3256 14.2725 25.6168 15.8438 24.4272C13.8342 24.3912 12.1399 23.109 11.5552 21.3468C11.835 21.3987 12.1228 21.427 12.4179 21.427C12.8369 21.427 13.2428 21.3725 13.6285 21.2708C11.528 20.8645 9.94568 19.0711 9.94568 16.9236C9.94568 16.9035 9.94568 16.8855 9.94629 16.867C10.5649 17.1992 11.2723 17.3991 12.0255 17.4215C10.7928 16.627 9.9826 15.2687 9.9826 13.73C9.9826 12.9175 10.21 12.1562 10.6042 11.5008C12.868 14.1843 16.2512 15.9492 20.0665 16.1346C19.9878 15.8097 19.9472 15.4713 19.9472 15.1234C19.9472 12.6751 22.0032 10.6889 24.5383 10.6889C25.8588 10.6889 27.0514 11.2281 27.8891 12.0902C28.9349 11.8909 29.917 11.5218 30.8041 11.0138C30.4608 12.0489 29.7333 12.9175 28.7854 13.4667C29.7141 13.3594 30.5991 13.1215 31.4215 12.7683C30.8072 13.6578 30.0281 14.4391 29.1318 15.065Z" fill="white"/>
</svg>
